<svg width="16" height="16" viewBox="0 0 16 16" fill="none" xmlns="http://www.w3.org/2000/svg">
<path d="M5.51256 1.99478C6.30117 1.66813 7.14641 1.5 8 1.5C8.85359 1.5 9.69883 1.66813 10.4874 1.99478C11.2761 2.32144 11.9926 2.80023 12.5962 3.40381C13.1998 4.00739 13.6786 4.72394 14.0052 5.51256C14.3319 6.30117 14.5 7.14641 14.5 8C14.5 9.72391 13.8152 11.3772 12.5962 12.5962C11.3772 13.8152 9.72391 14.5 8 14.5C7.14641 14.5 6.30117 14.3319 5.51256 14.0052C4.72394 13.6786 4.00739 13.1998 3.40381 12.5962C2.18482 11.3772 1.5 9.72391 1.5 8C1.5 6.27609 2.18482 4.62279 3.40381 3.40381C4.00739 2.80023 4.72394 2.32144 5.51256 1.99478Z" fill="#0E7B3B" stroke="#F9F9F9" stroke-width="3"/>
</svg>
