<svg width="16" height="16" viewBox="0 0 16 16" fill="none" xmlns="http://www.w3.org/2000/svg">
<path d="M11.7156 14.7556L9.92889 11.6622C10.8 11.0222 11.4044 10.0267 11.5289 8.88889H15.1111C14.96 11.3422 13.6444 13.4756 11.7156 14.7556ZM8.88889 3.58222V0C12.7111 0.231111 15.7689 3.28889 16 7.11111H12.4178C12.2133 5.25333 10.7467 3.78667 8.88889 3.58222ZM3.55556 8.44444C3.55556 9.01333 3.67111 9.55556 3.89333 10.0444L0.8 11.8311C0.284445 10.8089 0 9.66222 0 8.44444C0 4.41778 3.14667 1.12889 7.11111 0.888889V4.47111C5.11111 4.69333 3.55556 6.38222 3.55556 8.44444ZM7.55556 16C4.91556 16 2.59556 14.6667 1.24444 12.6044L4.33778 10.8178C5.06667 11.8044 6.22222 12.4444 7.55556 12.4444C8.12444 12.4444 8.66667 12.3289 9.15556 12.1067L10.9422 15.2C9.92 15.7156 8.77333 16 7.55556 16Z" fill="#333333"/>
</svg>
