<svg width="13" height="14" viewBox="0 0 13 14" fill="none" xmlns="http://www.w3.org/2000/svg">
<path d="M6.4 0.599976C7.24869 0.599976 8.06262 0.937117 8.66274 1.53723C9.26286 2.13735 9.6 2.95128 9.6 3.79998C9.6 4.64867 9.26286 5.4626 8.66274 6.06272C8.06262 6.66283 7.24869 6.99998 6.4 6.99998C5.55131 6.99998 4.73737 6.66283 4.13726 6.06272C3.53714 5.4626 3.2 4.64867 3.2 3.79998C3.2 2.95128 3.53714 2.13735 4.13726 1.53723C4.73737 0.937117 5.55131 0.599976 6.4 0.599976ZM6.4 8.59998C9.936 8.59998 12.8 10.032 12.8 11.8V13.4H0V11.8C0 10.032 2.864 8.59998 6.4 8.59998Z" fill="#333333"/>
</svg>
